<?xml version="1.0" standalone="no"?>
<!DOCTYPE svg PUBLIC "-//W3C//DTD SVG 20010904//EN"
 "http://www.w3.org/TR/2001/REC-SVG-20010904/DTD/svg10.dtd">
<svg version="1.0" xmlns="http://www.w3.org/2000/svg"
 width="1567.000000pt" height="1567.000000pt" viewBox="0 0 1567.000000 1567.000000"
 preserveAspectRatio="xMidYMid meet">
<metadata>
Created by potrace 1.14, written by Peter Selinger 2001-2017
</metadata>
<g transform="translate(0.000000,1567.000000) scale(0.100000,-0.100000)"
fill="#000000" stroke="none">
<path d="M7841 14678 c-24 -82 -103 -337 -187 -603 -54 -169 -141 -410 -195
-535 -39 -91 -159 -330 -206 -408 -23 -41 -43 -76 -43 -78 0 -8 -196 -301
-253 -379 -59 -81 -218 -288 -227 -295 -3 -3 -28 -32 -55 -65 -72 -87 -224
-263 -266 -310 -20 -22 -51 -56 -69 -75 -282 -310 -849 -887 -1306 -1330 -187
-181 -544 -524 -604 -580 -294 -277 -696 -671 -814 -800 -38 -41 -83 -91 -101
-110 -73 -80 -207 -254 -277 -361 -100 -152 -156 -251 -251 -449 -155 -324
-200 -453 -242 -695 -23 -132 -23 -782 0 -848 2 -7 6 -37 9 -67 9 -102 56
-311 101 -447 69 -205 171 -397 306 -575 99 -130 362 -387 493 -483 23 -16 43
-32 46 -36 11 -14 209 -139 274 -173 171 -89 361 -150 566 -181 25 -4 53 -9
62 -10 141 -27 726 -26 828 0 8 2 40 7 70 10 194 22 484 110 697 211 83 40
285 152 293 164 3 4 14 12 25 18 27 14 190 137 255 192 89 76 258 250 349 358
98 119 174 222 321 442 142 211 194 284 258 358 84 97 114 80 115 -67 1 -76
-8 -252 -18 -351 -2 -19 -6 -77 -10 -129 -4 -52 -8 -102 -10 -110 -1 -9 -6
-47 -9 -86 -4 -38 -9 -81 -11 -95 -2 -14 -7 -45 -9 -70 -8 -76 -44 -290 -66
-395 -12 -55 -24 -113 -26 -130 -3 -16 -7 -37 -10 -45 -3 -8 -20 -73 -39 -145
-112 -433 -308 -866 -548 -1205 -238 -337 -594 -678 -955 -915 -129 -84 -176
-111 -337 -189 -285 -139 -558 -228 -990 -322 -24 -5 -239 -44 -275 -49 -14
-2 -81 -13 -150 -24 -69 -11 -146 -22 -172 -25 -152 -18 -316 -52 -369 -75
-70 -31 -107 -85 -104 -151 4 -80 38 -99 235 -125 249 -34 810 -40 3925 -40
2514 0 3394 5 3640 20 33 2 107 6 165 9 58 4 119 9 135 11 93 15 150 30 178
49 30 20 32 26 35 86 4 83 -15 122 -72 149 -45 21 -136 49 -183 57 -15 2 -39
7 -53 10 -14 3 -36 8 -50 10 -14 3 -63 12 -110 20 -112 21 -98 19 -309 54
-254 42 -356 61 -446 85 -27 8 -84 23 -125 34 -41 11 -136 41 -210 66 -590
203 -1098 512 -1501 914 -183 184 -308 341 -415 526 -40 69 -124 240 -124 253
0 4 -7 20 -15 36 -35 66 -151 413 -195 581 -25 92 -82 324 -86 345 -3 14 -18
90 -34 170 -16 80 -32 165 -35 189 -3 24 -7 55 -10 70 -11 61 -24 171 -30 241
-4 41 -9 86 -12 100 -9 42 -13 814 -4 804 4 -5 100 -146 212 -314 112 -168
206 -307 209 -310 3 -3 31 -40 63 -83 151 -202 444 -509 623 -653 21 -17 64
-51 94 -76 83 -67 215 -158 310 -215 273 -163 431 -211 855 -258 203 -23 619
-23 743 -1 9 2 40 7 67 11 54 7 187 41 220 55 28 11 58 23 70 25 22 5 277 136
327 167 29 19 60 37 68 40 27 10 244 169 315 231 290 253 497 528 638 847 56
126 80 218 112 420 5 31 16 166 21 240 4 78 4 465 0 525 -43 563 -139 856
-422 1285 -27 41 -52 79 -57 85 -4 5 -28 37 -52 70 -25 33 -49 65 -53 70 -4 6
-32 42 -62 80 -30 39 -68 86 -85 106 -16 19 -52 62 -80 94 -107 127 -213 246
-361 405 -33 36 -87 94 -120 129 -166 180 -474 498 -934 963 -508 515 -960
978 -1059 1087 -13 14 -60 65 -105 112 -44 47 -117 125 -161 174 -44 49 -85
93 -90 99 -19 20 -160 181 -210 240 -27 33 -54 64 -60 70 -54 59 -253 319
-345 451 -62 89 -202 312 -232 370 -8 17 -40 77 -70 135 -105 204 -216 475
-353 870 -18 52 -54 154 -80 225 -25 72 -55 157 -66 190 -11 33 -24 64 -28 68
-4 4 -13 -12 -20 -35z"/>
</g>
</svg>
